<svg id="Capa_1" data-name="Capa 1" xmlns="http://www.w3.org/2000/svg" viewBox="0 0 572 572"><defs><style>.cls-1{fill:#303031;}</style></defs><title>mask-knob</title><polygon class="cls-1" points="299.83 571.88 287.3 560.97 274.86 572 263.32 560.04 249.98 569.94 239.53 557.02 225.37 565.72 216.08 551.94 201.22 559.38 193.17 544.83 177.72 550.95 170.97 535.76 155.04 540.5 149.64 524.78 133.35 528.12 129.34 511.99 112.83 513.9 110.24 497.48 93.63 497.94 92.48 481.36 75.89 480.37 76.19 463.75 59.75 461.31 61.5 444.79 45.33 440.93 48.52 424.62 32.75 419.36 37.34 403.39 22.09 396.79 28.05 381.27 13.44 373.36 20.73 358.43 6.86 349.27 15.43 335.03 2.41 324.71 12.19 311.27 0.12 299.84 11.03 287.31 0 274.87 11.96 263.34 2.06 249.99 14.98 239.54 6.28 225.38 20.06 216.09 12.63 201.23 27.17 193.18 21.06 177.73 36.24 170.98 31.5 155.05 47.22 149.65 43.89 133.36 60.01 129.35 58.11 112.84 74.53 110.25 74.07 93.64 90.65 92.49 91.64 75.9 108.26 76.2 110.69 59.76 127.22 61.51 131.08 45.34 147.39 48.52 152.65 32.75 168.62 37.34 175.22 22.09 190.74 28.06 198.65 13.44 213.58 20.74 222.74 6.87 236.98 15.43 247.31 2.41 260.75 12.19 272.17 0.12 284.7 11.03 297.14 0 308.68 11.96 322.02 2.06 332.47 14.98 346.63 6.28 355.92 20.06 370.78 12.63 378.83 27.17 394.28 21.05 401.03 36.24 416.96 31.5 422.36 47.22 438.65 43.88 442.66 60.01 459.17 58.1 461.76 74.52 478.37 74.06 479.52 90.64 496.11 91.64 495.81 108.25 512.25 110.69 510.5 127.21 526.67 131.07 523.48 147.38 539.25 152.64 534.66 168.61 549.91 175.22 543.95 190.73 558.56 198.64 551.27 213.57 565.14 222.72 556.57 236.97 569.59 247.29 559.81 260.73 571.88 272.16 560.97 284.69 572 297.13 560.04 308.66 569.94 322.01 557.02 332.46 565.72 346.62 551.94 355.91 559.37 370.77 544.83 378.82 550.94 394.27 535.76 401.02 540.5 416.95 524.78 422.35 528.11 438.64 511.99 442.65 513.89 459.16 497.47 461.75 497.93 478.36 481.35 479.51 480.36 496.1 463.74 495.8 461.31 512.24 444.78 510.49 440.92 526.66 424.61 523.48 419.35 539.25 403.38 534.66 396.77 549.91 381.26 543.94 373.35 558.56 358.42 551.26 349.26 565.13 335.02 556.57 324.69 569.59 311.25 559.81 299.83 571.88"/></svg>